<?xml version="1.0" encoding="UTF-8"?>
<svg id="Layer_1" data-name="Layer 1" xmlns="http://www.w3.org/2000/svg" viewBox="0 0 644.06 117.52">
  <defs>
    <style>
      .cls-1 {
        fill: #3e66f3;
      }
    </style>
  </defs>
  <g id="Layer_1-2" data-name="Layer 1">
    <path class="cls-1" d="M19.19,34.92c0,2.91,8.28,14.35,32.19,14.35h20c3.92,0,.13-6.93-17.06-14.14-18.24-7.66-35.11-7.32-35.11-.21h-.01Z"/>
    <path class="cls-1" d="M337.34,60.96c0,30.5-20.62,56.56-56.81,56.56s-56.49-24.96-56.49-56.62c0-29.93,22.28-55.85,56.92-55.85s56.36,25.96,56.36,55.9h.01ZM240.2,60.5c0,23.2,14.16,44.23,40.87,44.23s40.13-20.04,40.13-43.46-14.09-43.42-41.09-43.42c-25.15,0-39.91,19.86-39.91,42.65Z"/>
    <path class="cls-1" d="M0,0h18.18v52.02h175.02V13.93h18.18v100.83h-18.18v-47.32H18.18v47.32H0V0h0Z"/>
    <g>
      <path class="cls-1" d="M383.98,19.8h-41.13V6.87h97.58v12.93h-41.09v94.96h-15.36V19.8h0Z"/>
      <path class="cls-1" d="M458.5,6.86h15.15v94.92h65.07l-2.3,12.99h-77.91V6.86h-.01Z"/>
      <path class="cls-1" d="M570.75,68.26v46.5h-15.15V6.86h51.54c22.11,0,36.91,10.13,36.91,29.29,0,13.04-6.49,22.28-19.72,25.72,7.09,1.98,16.89,7.37,16.89,26.25v4.75c0,8.28-.06,17.35,1.27,21.9h-15.59c-1.62-4.71-1.41-12.9-1.41-21.96v-3.6c0-15.91-6.17-20.93-25.08-20.93h-29.64l-.03-.03ZM570.75,55.77h32.54c16.85,0,25.12-5.91,25.12-18.74,0-11.77-8.32-17.67-24.55-17.67h-33.09v36.41s-.01,0-.01,0Z"/>
    </g>
  </g>
</svg>